<svg xmlns="http://www.w3.org/2000/svg" xmlns:xlink="http://www.w3.org/1999/xlink" fill="none" version="1.1" width="156" height="48" viewBox="0 0 156 48"><g><path d="M8.46094,38.3605L2.37891,38.3605L2.37891,9.38006L7.99219,9.38006L17.2031,23.384L17.4258,23.384L26.6367,9.38006L32.2617,9.38006L32.2617,38.3605L26.1328,38.3605L26.1328,21.1222L25.9219,21.1222L19.6523,30.4035L14.9766,30.4035L8.67188,21.2629L8.46094,21.2629L8.46094,38.3605ZM56.0625,26.091Q56.0625,28.3527,55.5938,29.9816L42.1289,29.9816Q42.8203,33.8605,46.5234,33.8605Q47.8242,33.8605,48.8672,33.1105Q49.9102,32.3488,50.5195,31.0246L55.5234,33.1808Q54.4453,35.8762,52.0781,37.3762Q49.7227,38.8644,46.4883,38.8644Q43.2422,38.8644,40.793,37.5168Q38.3555,36.1691,37.0312,33.673Q35.7188,31.1652,35.7188,27.8137Q35.7188,24.3215,37.0195,21.7551Q38.3203,19.1769,40.6758,17.7707Q43.0312,16.3644,46.1953,16.3644Q49.1484,16.3644,51.375,17.5597Q53.6133,18.7433,54.832,20.9465Q56.0625,23.1379,56.0625,26.091ZM49.875,24.9777Q49.875,23.3488,48.8789,22.341Q47.8945,21.3332,46.1953,21.3332Q43.1016,21.3332,42.2344,24.9777L49.875,24.9777ZM59.0859,38.3605L59.0859,16.8683L65.168,16.8683L65.168,19.6105L65.3906,19.6105Q66.3281,18.0285,67.8047,17.1965Q69.2812,16.3644,71.1797,16.3644Q73.0195,16.3644,74.332,17.2199Q75.6445,18.0637,76.3008,19.6808L76.5117,19.6808Q77.6602,18.0285,79.2422,17.1965Q80.8359,16.3644,83.0273,16.3644Q86.0508,16.3644,87.7383,18.4269Q89.4375,20.4777,89.4375,24.216L89.4375,38.3605L83.3555,38.3605L83.3555,25.6222Q83.3555,23.923,82.6523,22.9972Q81.9492,22.0597,80.6133,22.0597Q79.0312,22.0597,78.1641,23.091Q77.3086,24.1105,77.3086,25.9855L77.3086,38.3605L71.2148,38.3605L71.2148,25.6222Q71.2148,23.923,70.5117,22.9972Q69.8203,22.0597,68.4844,22.0597Q66.9023,22.0597,66.0352,23.091Q65.168,24.1105,65.168,25.9855L65.168,38.3605L59.0859,38.3605ZM113.062,26.091Q113.062,28.3527,112.594,29.9816L99.1289,29.9816Q99.8203,33.8605,103.523,33.8605Q104.824,33.8605,105.867,33.1105Q106.91,32.3488,107.52,31.0246L112.523,33.1808Q111.445,35.8762,109.078,37.3762Q106.723,38.8644,103.488,38.8644Q100.242,38.8644,97.793,37.5168Q95.3555,36.1691,94.0312,33.673Q92.7188,31.1652,92.7188,27.8137Q92.7188,24.3215,94.0195,21.7551Q95.3203,19.1769,97.6758,17.7707Q100.031,16.3644,103.195,16.3644Q106.148,16.3644,108.375,17.5597Q110.613,18.7433,111.832,20.9465Q113.062,23.1379,113.062,26.091ZM106.875,24.9777Q106.875,23.3488,105.879,22.341Q104.895,21.3332,103.195,21.3332Q100.102,21.3332,99.2344,24.9777L106.875,24.9777ZM124.301,38.8644Q120.914,38.8644,118.465,37.3058Q116.016,35.7355,115.078,33.1105L120.152,30.9426Q120.656,32.3137,121.734,33.0871Q122.824,33.8605,124.219,33.8605Q125.52,33.8605,126.164,33.4387Q126.82,33.0051,126.82,32.2433Q126.82,31.4933,126,30.966Q125.191,30.4387,123.574,30.0871Q119.719,29.2199,117.574,27.5676Q115.441,25.9035,115.441,23.1379Q115.441,21.0871,116.496,19.5637Q117.562,18.0285,119.508,17.1965Q121.453,16.3644,124.008,16.3644Q127.137,16.3644,129.551,17.9113Q131.965,19.4582,133.008,22.0949L127.969,24.216Q127.324,22.8801,126.27,22.1066Q125.227,21.3332,124.113,21.3332Q122.93,21.3332,122.297,21.7902Q121.664,22.2355,121.664,22.9972Q121.664,23.7824,122.508,24.2863Q123.363,24.7902,125.59,25.2941Q133.043,26.9113,133.043,31.9972Q133.043,33.9777,131.906,35.548Q130.781,37.1066,128.777,37.9855Q126.785,38.8644,124.301,38.8644ZM142.031,38.8644Q139.184,38.8644,137.32,37.2355Q135.469,35.5949,135.469,32.7121Q135.469,30.4855,136.723,28.798Q137.988,27.0988,140.309,26.1847Q142.641,25.259,145.734,25.259L147.68,25.259L147.68,24.7199Q147.68,23.1379,146.789,22.2941Q145.91,21.4387,144.328,21.4387Q142.066,21.4387,140.227,23.6769L136.266,20.6535Q139.758,16.3644,145.125,16.3644Q147.68,16.3644,149.66,17.3957Q151.641,18.4152,152.719,20.2551Q153.797,22.0949,153.797,24.509L153.797,38.3605L147.68,38.3605L147.68,35.9113L147.457,35.9113Q146.812,37.3527,145.371,38.1027Q143.93,38.8644,142.031,38.8644ZM143.93,33.8605Q145.559,33.8605,146.613,33.1222Q147.68,32.384,147.68,31.0949L147.68,30.2277L146.344,30.2277Q144.012,30.2277,142.852,30.6965Q141.703,31.1652,141.703,32.2785Q141.703,32.9582,142.289,33.4152Q142.887,33.8605,143.93,33.8605Z" fill="#FF9900" fill-opacity="1"/></g></svg>