<?xml version="1.0" standalone="no"?><!DOCTYPE svg PUBLIC "-//W3C//DTD SVG 1.1//EN" "http://www.w3.org/Graphics/SVG/1.1/DTD/svg11.dtd"><svg t="1684591692181" class="icon" viewBox="0 0 1024 1024" version="1.1" xmlns="http://www.w3.org/2000/svg" p-id="5024" xmlns:xlink="http://www.w3.org/1999/xlink" width="128" height="128"><path d="M921.6 421.888c-4.096-106.496-45.056-208.896-118.784-282.624C724.992 61.44 622.592 20.48 512 20.48c-32.768 0-65.536 4.096-94.208 12.288v208.896H339.968v-122.88c0-20.48-16.384-40.96-40.96-40.96H208.896C192.512 45.056 159.744 20.48 118.784 20.48 65.536 20.48 20.48 65.536 20.48 118.784c0 53.248 45.056 98.304 98.304 98.304 40.96 0 73.728-24.576 90.112-57.344h49.152v118.784c0 20.48 16.384 40.96 40.96 40.96h118.784v126.976H249.856c-16.384-32.768-49.152-57.344-90.112-57.344-53.248 0-98.304 45.056-98.304 98.304 0 53.248 45.056 98.304 98.304 98.304 40.96 0 73.728-24.576 90.112-57.344h167.936V655.36H299.008c-20.48 0-40.96 16.384-40.96 40.96v118.784H208.896c-16.384-32.768-49.152-57.344-90.112-57.344-53.248 0-98.304 45.056-98.304 98.304s45.056 98.304 98.304 98.304c40.96 0 73.728-24.576 90.112-57.344h90.112c20.48 0 40.96-16.384 40.96-40.96V737.28h77.824v241.664c0 16.384 12.288 28.672 28.672 28.672h258.048c16.384 0 28.672-12.288 28.672-28.672v-139.264h110.592c45.056 0 81.92-36.864 81.92-81.92v-126.976h16.384c20.48 0 40.96-8.192 49.152-28.672 12.288-16.384 12.288-36.864 8.192-57.344l-77.824-122.88z" p-id="5025" fill="#36ab60"></path></svg>