<?xml version="1.0" standalone="no"?><!DOCTYPE svg PUBLIC "-//W3C//DTD SVG 1.1//EN" "http://www.w3.org/Graphics/SVG/1.1/DTD/svg11.dtd"><svg t="1684593259864" class="icon" viewBox="0 0 1024 1024" version="1.1" xmlns="http://www.w3.org/2000/svg" p-id="6078" xmlns:xlink="http://www.w3.org/1999/xlink" width="128" height="128"><path d="M877.714286 0H146.285714c-20.228571 0-36.571429 16.342857-36.571428 36.571429v256h804.571428V36.571429c0-20.228571-16.342857-36.571429-36.571428-36.571429zM256 192c-25.257143 0-45.714286-20.457143-45.714286-45.714286s20.457143-45.714286 45.714286-45.714285 45.714286 20.457143 45.714286 45.714285-20.457143 45.714286-45.714286 45.714286zM109.714286 987.428571c0 20.228571 16.342857 36.571429 36.571428 36.571429h731.428572c20.228571 0 36.571429-16.342857 36.571428-36.571429V731.428571H109.714286v256z m146.285714-155.428571c25.257143 0 45.714286 20.457143 45.714286 45.714286s-20.457143 45.714286-45.714286 45.714285-45.714286-20.457143-45.714286-45.714285 20.457143-45.714286 45.714286-45.714286zM109.714286 658.285714h804.571428V365.714286H109.714286v292.571428z m146.285714-192c25.257143 0 45.714286 20.457143 45.714286 45.714286s-20.457143 45.714286-45.714286 45.714286-45.714286-20.457143-45.714286-45.714286 20.457143-45.714286 45.714286-45.714286z" p-id="6079" fill="#1296db"></path></svg>